<!DOCTYPE svg PUBLIC "-//W3C//DTD SVG 1.1//EN" "http://www.w3.org/Graphics/SVG/1.1/DTD/svg11.dtd">

<!-- Uploaded to: SVG Repo, www.svgrepo.com, Transformed by: SVG Repo Mixer Tools -->
<svg fill="#ffffff" xmlns="http://www.w3.org/2000/svg" width="32px" height="32px" viewBox="0 0 100 100"
     enable-background="new 0 0 100 100" xml:space="preserve">

<g id="SVGRepo_bgCarrier" stroke-width="0"/>

    <g id="SVGRepo_tracerCarrier" stroke-linecap="round" stroke-linejoin="round"/>

    <g id="SVGRepo_iconCarrier"> <path
            d="M26.3,22.7c-4.5,0-8.2,3.5-8.2,7.8v44.3c0,4.3,3.7,7.8,8.2,7.8h43.6c4.5,0,8.2-3.5,8.2-7.8V30.5 c0-4.3-3.7-7.8-8.2-7.8H26.3z M37.2,40.9c0,1.4-1.2,2.6-2.7,2.6h-2.7c-1.5,0-2.7-1.2-2.7-2.6v-2.6c0-1.4,1.2-2.6,2.7-2.6h2.7 c1.5,0,2.7,1.2,2.7,2.6V40.9z M67.2,40.9c0,1.4-1.2,2.6-2.7,2.6H45.4c-1.5,0-2.7-1.2-2.7-2.6v-2.6c0-1.4,1.2-2.6,2.7-2.6h19.1 c1.5,0,2.7,1.2,2.7,2.6V40.9z M37.2,54c0,1.4-1.2,2.6-2.7,2.6h-2.7c-1.5,0-2.7-1.2-2.7-2.6v-2.6c0-1.4,1.2-2.6,2.7-2.6h2.7 c1.5,0,2.7,1.2,2.7,2.6V54z M62.2,54c0,1.4-1.2,2.6-2.7,2.6H45.4c-1.5,0-2.7-1.2-2.7-2.6v-2.6c0-1.4,1.2-2.6,2.7-2.6h14.1 c1.5,0,2.7,1.2,2.7,2.6V54z M37.2,67c0,1.4-1.2,2.6-2.7,2.6h-2.7c-1.5,0-2.7-1.2-2.7-2.6v-2.6c0-1.4,1.2-2.6,2.7-2.6h2.7 c1.5,0,2.7,1.2,2.7,2.6V67z M67.2,67c0,1.4-1.2,2.6-2.7,2.6H45.4c-1.5,0-2.7-1.2-2.7-2.6v-2.6c0-1.4,1.2-2.6,2.7-2.6h19.1 c1.5,0,2.7,1.2,2.7,2.6V67z"/> </g>

</svg>